<svg width="12" height="13" viewBox="0 0 12 13" fill="none" xmlns="http://www.w3.org/2000/svg">
<g clip-path="url(#clip0_1_8)">
<path d="M11.1548 1.67429L9.88091 0.356958C9.66001 0.128532 9.36044 0.000140809 9.04805 0L4.82143 0C4.50885 0 4.20908 0.128404 3.98805 0.356964C3.76703 0.585524 3.64286 0.895517 3.64286 1.21875V2.4375H1.67857C1.36599 2.4375 1.06622 2.5659 0.845196 2.79446C0.624171 3.02302 0.5 3.33302 0.5 3.65625L0.5 11.7813C0.5 12.1045 0.624171 12.4145 0.845196 12.643C1.06622 12.8716 1.36599 13 1.67857 13H7.17857C7.49115 13 7.79092 12.8716 8.01195 12.643C8.23297 12.4145 8.35714 12.1045 8.35714 11.7813V10.5625H10.3214C10.634 10.5625 10.9338 10.4341 11.1548 10.2055C11.3758 9.97698 11.5 9.66698 11.5 9.34375V2.53608C11.5 2.37603 11.4695 2.21755 11.4103 2.06969C11.3511 1.92182 11.2643 1.78746 11.1548 1.67429ZM7.03138 11.7813H1.82524C1.7862 11.7813 1.74876 11.7652 1.72116 11.7367C1.69356 11.7081 1.67805 11.6694 1.67805 11.629V3.80792C1.67805 3.76755 1.69356 3.72883 1.72116 3.70029C1.74876 3.67174 1.7862 3.65571 1.82524 3.65571H3.64286V9.34321C3.64286 9.66644 3.76703 9.97644 3.98805 10.205C4.20908 10.4336 4.50885 10.562 4.82143 10.562H7.17857V11.6285C7.17843 11.6688 7.16288 11.7075 7.13531 11.736C7.10773 11.7645 7.07038 11.7811 7.03138 11.7813ZM10.1742 9.34375H4.9681C4.92906 9.34375 4.89162 9.32771 4.86402 9.29917C4.83641 9.27063 4.8209 9.23191 4.8209 9.19154V1.37042C4.8209 1.33005 4.83641 1.29133 4.86402 1.26279C4.89162 1.23424 4.92906 1.21821 4.9681 1.21821H7.57143V3.45258C7.57143 3.78896 7.83543 4.06196 8.16071 4.06196H10.3214V9.191C10.3213 9.23132 10.3057 9.26996 10.2782 9.29847C10.2506 9.32698 10.2132 9.34361 10.1742 9.34375ZM10.3214 2.84375H8.75V1.21875H8.98624C9.02552 1.21875 9.06324 1.235 9.091 1.26317L10.278 2.49167C10.3054 2.52035 10.3209 2.55908 10.3209 2.59946L10.3214 2.84375Z" fill="#A4FFAF"/>
</g>
<defs>
<clipPath id="clip0_1_8">
<rect width="11" height="13" fill="white" transform="translate(0.5)"/>
</clipPath>
</defs>
</svg>
