<svg width="294" height="70" viewBox="0 0 294 70" fill="none" xmlns="http://www.w3.org/2000/svg">
<g opacity="0.25">
<path d="M292.023 21.7054C292.023 22.7151 291.328 23.9179 289.46 25.2698C287.622 26.6004 284.848 27.9252 281.179 29.2104C273.853 31.7763 263.198 34.1038 249.964 36.0643C223.513 39.983 186.936 42.4109 146.512 42.4109C106.087 42.4109 69.5103 39.983 43.0588 36.0643C29.8254 34.1038 19.1698 31.7763 11.8442 29.2104C8.17513 27.9252 5.40086 26.6004 3.56302 25.2698C1.69562 23.9179 1 22.7151 1 21.7054C1 20.6957 1.69562 19.493 3.56302 18.141C5.40086 16.8105 8.17513 15.4856 11.8442 14.2005C19.1698 11.6346 29.8254 9.30708 43.0588 7.34658C69.5103 3.42784 106.087 1 146.512 1C186.936 1 223.513 3.42784 249.964 7.34658C263.198 9.30708 273.853 11.6346 281.179 14.2005C284.848 15.4856 287.622 16.8105 289.46 18.141C291.328 19.493 292.023 20.6957 292.023 21.7054Z" stroke="white" stroke-width="2"/>
<path d="M292.023 28.217C292.023 29.2267 291.328 30.4295 289.46 31.7814C287.622 33.112 284.848 34.4368 281.179 35.722C273.853 38.2879 263.198 40.6154 249.964 42.5759C223.513 46.4946 186.936 48.9225 146.512 48.9225C106.087 48.9225 69.5103 46.4946 43.0588 42.5759C29.8254 40.6154 19.1698 38.2879 11.8442 35.722C8.17513 34.4368 5.40086 33.112 3.56302 31.7814C1.69562 30.4295 1 29.2267 1 28.217C1 27.2073 1.69562 26.0046 3.56302 24.6526C5.40086 23.3221 8.17513 21.9972 11.8442 20.7121C19.1698 18.1462 29.8254 15.8187 43.0588 13.8582C69.5103 9.93944 106.087 7.5116 146.512 7.5116C186.936 7.5116 223.513 9.93944 249.964 13.8582C263.198 15.8187 273.853 18.1462 281.179 20.7121C284.848 21.9972 287.622 23.3221 289.46 24.6526C291.328 26.0046 292.023 27.2073 292.023 28.217Z" stroke="white" stroke-width="2"/>
<path d="M292.023 35.2713C292.023 36.281 291.328 37.4838 289.46 38.8357C287.622 40.1663 284.848 41.4912 281.179 42.7763C273.853 45.3422 263.198 47.6697 249.964 49.6302C223.513 53.5489 186.936 55.9768 146.512 55.9768C106.087 55.9768 69.5103 53.5489 43.0588 49.6302C29.8254 47.6697 19.1698 45.3422 11.8442 42.7763C8.17513 41.4912 5.40086 40.1663 3.56302 38.8357C1.69562 37.4838 1 36.281 1 35.2713C1 34.2617 1.69562 33.0589 3.56302 31.7069C5.40086 30.3764 8.17513 29.0515 11.8442 27.7664C19.1698 25.2005 29.8254 22.873 43.0588 20.9125C69.5103 16.9938 106.087 14.5659 146.512 14.5659C186.936 14.5659 223.513 16.9938 249.964 20.9125C263.198 22.873 273.853 25.2005 281.179 27.7664C284.848 29.0515 287.622 30.3764 289.46 31.7069C291.328 33.0589 292.023 34.2617 292.023 35.2713Z" stroke="white" stroke-width="2"/>
<path d="M292.023 41.7829C292.023 42.7926 291.328 43.9954 289.46 45.3473C287.622 46.6779 284.848 48.0028 281.179 49.2879C273.853 51.8538 263.198 54.1813 249.964 56.1418C223.513 60.0605 186.936 62.4884 146.512 62.4884C106.087 62.4884 69.5103 60.0605 43.0588 56.1418C29.8254 54.1813 19.1698 51.8538 11.8442 49.2879C8.17513 48.0028 5.40086 46.6779 3.56302 45.3473C1.69562 43.9954 1 42.7926 1 41.7829C1 40.7733 1.69562 39.5705 3.56302 38.2185C5.40086 36.888 8.17513 35.5631 11.8442 34.278C19.1698 31.7121 29.8254 29.3846 43.0588 27.4241C69.5103 23.5054 106.087 21.0775 146.512 21.0775C186.936 21.0775 223.513 23.5054 249.964 27.4241C263.198 29.3846 273.853 31.7121 281.179 34.278C284.848 35.5631 287.622 36.888 289.46 38.2185C291.328 39.5705 292.023 40.7733 292.023 41.7829Z" stroke="white" stroke-width="2"/>
<path d="M292.023 48.2945C292.023 49.3042 291.328 50.507 289.46 51.8589C287.622 53.1895 284.848 54.5144 281.179 55.7995C273.853 58.3654 263.198 60.6929 249.964 62.6534C223.513 66.5721 186.936 69 146.512 69C106.087 69 69.5103 66.5721 43.0588 62.6534C29.8254 60.6929 19.1698 58.3654 11.8442 55.7995C8.17513 54.5144 5.40086 53.1895 3.56302 51.8589C1.69562 50.507 1 49.3042 1 48.2945C1 47.2848 1.69562 46.0821 3.56302 44.7301C5.40086 43.3996 8.17513 42.0747 11.8442 40.7896C19.1698 38.2237 29.8254 35.8962 43.0588 33.9357C69.5103 30.017 106.087 27.5891 146.512 27.5891C186.936 27.5891 223.513 30.017 249.964 33.9357C263.198 35.8962 273.853 38.2237 281.179 40.7896C284.848 42.0747 287.622 43.3996 289.46 44.7301C291.328 46.0821 292.023 47.2848 292.023 48.2945Z" stroke="white" stroke-width="2"/>
</g>
</svg>
