<?xml version="1.0" standalone="no"?>
<!DOCTYPE svg PUBLIC "-//W3C//DTD SVG 20010904//EN"
 "http://www.w3.org/TR/2001/REC-SVG-20010904/DTD/svg10.dtd">
<svg version="1.0" xmlns="http://www.w3.org/2000/svg"
 width="174.000000pt" height="242.000000pt" viewBox="0 0 174.000000 242.000000"
 preserveAspectRatio="xMidYMid meet">
<metadata>
Created by potrace 1.16, written by Peter Selinger 2001-2019
</metadata>
<g transform="translate(0.000000,242.000000) scale(0.029000,-0.031759)"
fill="#000000" stroke="none">
<path d="M3143 5312 c-8 -14 -19 -18 -42 -14 -19 2 -31 0 -31 -7 0 -6 -6 -11
-13 -11 -7 0 -32 -9 -55 -20 -45 -22 -118 -27 -124 -8 -3 7 -14 9 -29 5 -25
-6 -56 -67 -44 -86 3 -5 -17 -32 -45 -60 -28 -28 -48 -51 -45 -51 16 0 -21
-43 -55 -65 -25 -16 -40 -33 -40 -46 0 -12 -12 -27 -30 -37 -19 -11 -30 -25
-30 -39 0 -12 -4 -25 -10 -28 -5 -3 -10 -13 -10 -22 0 -9 -8 -25 -17 -35 -20
-22 -27 -107 -14 -186 5 -32 5 -61 1 -66 -5 -5 -6 -37 -3 -71 4 -48 2 -67 -11
-87 -16 -25 -16 -27 4 -46 12 -11 26 -45 34 -84 7 -36 25 -86 40 -112 34 -61
34 -107 0 -141 -24 -24 -26 -31 -20 -77 7 -53 27 -102 48 -114 8 -5 9 5 5 39
-5 35 -3 46 6 44 6 -1 11 4 9 11 -1 6 13 27 32 45 18 17 39 42 45 54 7 14 25
25 49 29 20 4 44 12 52 19 25 21 73 42 113 49 52 10 90 -14 81 -49 -9 -36 24
-33 58 5 43 50 77 40 97 -29 10 -36 10 -45 -1 -52 -7 -5 -14 -13 -14 -19 -1
-5 -2 -15 -3 -21 -1 -8 -16 -10 -45 -6 -32 5 -54 1 -84 -13 -45 -22 -72 -26
-72 -10 0 6 -6 10 -13 10 -19 0 -49 -63 -45 -96 3 -30 7 -31 44 -20 21 6 27 3
62 -39 22 -26 9 -47 -49 -79 -60 -32 -53 -33 -131 4 -34 16 -77 1 -85 -30 -3
-11 -9 -17 -15 -14 -5 3 -6 14 -3 25 4 10 2 19 -3 19 -38 0 -4 -218 52 -345 8
-16 23 -51 35 -77 12 -26 21 -54 21 -63 0 -34 -32 -73 -134 -164 -101 -90
-220 -165 -336 -210 -56 -22 -89 -37 -195 -86 -55 -26 -123 -50 -152 -55 -81
-14 -223 -66 -370 -136 -74 -35 -141 -64 -150 -64 -38 0 -86 -44 -148 -137
-39 -57 -75 -135 -75 -162 0 -9 -4 -21 -9 -26 -7 -9 -39 -87 -104 -255 -14
-36 -32 -92 -41 -125 -9 -33 -34 -125 -56 -205 -23 -80 -47 -170 -56 -200 -8
-30 -23 -80 -34 -110 -10 -30 -21 -84 -24 -120 -7 -81 -80 -310 -133 -415 -25
-49 -134 -371 -163 -480 -12 -44 -27 -117 -34 -162 l-12 -83 2637 0 2638 0
-24 43 c-25 42 -25 44 -25 327 0 183 -6 341 -16 440 -8 85 -19 227 -24 315 -4
88 -15 192 -23 230 -8 39 -20 104 -27 145 -47 294 -104 511 -177 668 -18 39
-33 77 -33 82 0 15 -48 107 -59 114 -5 4 -17 31 -25 61 -21 71 -57 113 -104
120 -20 3 -62 19 -92 34 -30 16 -74 32 -97 36 -24 4 -68 24 -100 46 -32 22
-88 48 -126 60 -37 11 -100 35 -140 53 -39 19 -121 55 -182 81 -119 51 -230
109 -283 148 -48 36 -180 165 -237 232 l-50 59 -7 175 c-5 121 -4 192 4 229
11 50 12 52 45 52 77 0 111 50 148 215 36 159 32 207 -20 252 -35 30 -37 35
-27 58 15 32 16 144 2 181 -6 15 -12 50 -14 78 -4 51 -25 105 -54 138 -9 11
-13 28 -9 45 6 34 -25 118 -44 118 -8 0 -15 8 -17 18 -2 9 1 17 7 17 6 0 11 4
11 8 0 19 -123 192 -136 192 -8 0 -32 16 -54 36 -33 30 -49 37 -99 41 -58 5
-59 6 -71 44 -9 27 -19 39 -32 39 -10 0 -18 6 -18 14 0 10 -19 16 -66 21 -58
7 -69 5 -94 -14 -34 -24 -60 -27 -60 -6 0 30 -40 53 -103 58 -71 6 -105 12
-127 21 -9 4 -20 -1 -27 -12z m-42 -495 c-12 -12 -2 -47 15 -47 7 0 18 -9 24
-20 9 -16 8 -22 -5 -26 -18 -7 -20 -41 -2 -47 17 -5 -10 -55 -34 -62 -27 -9
-31 -33 -9 -55 22 -22 40 -26 40 -10 0 6 -4 10 -10 10 -5 0 -7 7 -3 16 10 26
75 14 90 -16 10 -21 9 -28 -8 -46 -16 -17 -28 -21 -59 -17 -28 4 -45 0 -66
-15 -23 -16 -48 -21 -126 -24 -88 -4 -98 -2 -98 13 0 10 -5 21 -11 25 -7 4 0
17 17 35 22 23 25 32 16 41 -7 7 -12 21 -12 32 0 11 -7 27 -15 36 -26 28 -29
73 -7 95 47 48 90 75 119 75 10 0 40 11 68 24 46 23 51 23 68 9 10 -10 14 -20
8 -26z m142 -1273 c20 -4 37 -12 37 -20 0 -22 -53 -51 -107 -59 -44 -6 -58 -3
-88 15 -41 25 -43 33 -13 54 23 17 102 21 171 10z m-492 -538 c-5 -6 -9 -34
-9 -63 1 -33 -6 -62 -17 -79 -9 -15 -12 -24 -7 -20 16 10 22 -8 13 -40 -4 -16
-5 -38 -1 -49 4 -13 2 -24 -7 -31 -13 -8 -11 -20 11 -75 15 -35 26 -73 24 -84
-1 -11 3 -36 9 -55 20 -60 34 -425 17 -451 -3 -5 -2 -15 3 -21 4 -7 9 -33 10
-58 2 -41 13 -123 28 -210 6 -33 17 -65 36 -102 4 -9 6 -74 4 -144 -3 -94 0
-134 10 -154 7 -14 14 -57 14 -95 0 -102 1 -105 17 -105 8 0 14 -10 14 -25 0
-14 -6 -25 -12 -25 -7 0 -2 -7 10 -16 20 -14 23 -24 21 -70 -2 -29 0 -57 4
-61 12 -12 8 -63 -6 -63 -7 0 -18 -9 -25 -20 -10 -17 -10 -20 3 -20 8 0 15 -7
15 -15 0 -8 -7 -15 -15 -15 -9 0 -18 -7 -21 -15 -4 -8 -12 -15 -20 -15 -10 0
-13 7 -8 25 5 20 3 24 -10 19 -15 -6 -22 10 -17 39 0 4 -10 7 -24 7 -14 0 -25
-4 -25 -10 0 -5 5 -10 10 -10 6 0 10 -16 10 -35 0 -19 5 -35 10 -35 6 0 10 -5
10 -11 0 -5 -10 -9 -22 -7 -11 2 -23 -3 -25 -9 -3 -7 0 -13 6 -13 6 0 11 -7
11 -15 0 -14 -3 -14 -24 0 -15 10 -22 22 -19 34 3 12 -2 20 -16 24 -17 4 -21
13 -21 45 0 32 -4 42 -20 47 -27 9 -25 30 6 71 15 19 21 34 15 34 -6 0 -11 -4
-11 -9 0 -13 -49 -20 -53 -7 -2 6 0 21 4 34 6 14 5 31 -2 43 -9 17 -13 18 -26
8 -13 -11 -14 -10 -11 11 2 17 17 32 46 48 46 26 52 41 22 59 -17 11 -21 10
-31 -10 -26 -49 -67 -43 -91 15 -10 22 -22 37 -27 34 -6 -4 -8 -12 -5 -19 2
-7 -5 -22 -17 -33 -22 -19 -22 -19 -17 3 4 13 2 26 -3 29 -5 3 -9 -2 -9 -10 0
-26 -1 -30 -12 -43 -5 -7 -7 -16 -4 -21 3 -6 -1 -15 -9 -22 -8 -7 -15 -19 -15
-26 0 -10 -9 -12 -31 -7 -24 4 -34 2 -41 -11 -8 -14 -13 -15 -24 -5 -12 9 -16
6 -25 -20 -6 -17 -15 -31 -20 -31 -5 0 -22 -19 -39 -42 -16 -22 -30 -37 -30
-33 0 4 -8 1 -17 -7 -18 -15 -59 -18 -79 -6 -7 5 -10 -1 -6 -17 3 -20 1 -24
-12 -19 -11 4 -19 -3 -28 -21 l-12 -27 -8 27 c-4 16 -4 33 0 39 3 6 5 22 3 35
-2 15 1 21 8 17 6 -4 12 -1 12 6 2 23 5 32 17 60 25 61 94 111 72 53 -5 -14
-7 -25 -4 -25 4 0 1 -7 -6 -15 -7 -8 -9 -22 -6 -32 6 -14 9 -13 21 10 7 14 11
35 8 45 -2 11 0 23 6 26 6 4 8 18 5 32 -3 13 -3 32 1 41 5 10 9 23 10 28 7 51
20 85 31 85 8 0 11 6 8 15 -4 8 -12 15 -20 15 -18 0 -18 4 2 41 8 17 13 33 11
36 -3 2 -11 -6 -18 -19 -7 -12 -18 -27 -25 -33 -6 -5 -18 -28 -25 -50 -11 -34
-14 -36 -17 -16 -2 13 1 28 6 33 6 6 5 19 -4 36 -9 17 -10 30 -4 36 6 6 10 23
10 38 0 21 5 28 19 28 11 0 23 5 26 10 4 7 13 7 26 0 13 -7 19 -7 19 0 0 5 -6
10 -14 10 -7 0 -19 6 -25 13 -6 8 -23 12 -41 9 l-30 -4 28 30 c25 27 27 35 22
83 -4 46 -8 54 -26 57 -15 2 -29 -7 -45 -29 -13 -18 -18 -29 -11 -25 7 4 12 1
12 -8 0 -10 -9 -16 -21 -16 -13 0 -23 -8 -26 -20 -4 -16 -8 -18 -19 -9 -11 9
-14 7 -14 -10 0 -30 -23 -51 -49 -44 -19 5 -21 2 -16 -33 2 -22 9 -40 15 -42
5 -2 10 -10 10 -19 0 -21 23 -11 37 18 7 13 13 18 13 11 0 -7 3 -11 8 -9 10 7
2 -86 -9 -97 -16 -17 -10 -29 11 -23 16 4 20 0 20 -23 0 -16 -7 -30 -15 -34
-8 -3 -15 -10 -15 -17 0 -6 -8 -23 -19 -37 -19 -28 -35 -122 -20 -122 5 0 9 5
9 11 0 7 10 0 21 -15 25 -32 18 -47 -11 -21 -11 10 -20 16 -20 12 0 -3 -3 -12
-6 -21 -4 -12 0 -16 15 -16 30 0 26 -28 -4 -36 -14 -3 -22 -10 -19 -15 3 -5
-2 -9 -11 -9 -8 0 -18 7 -22 16 -3 8 -11 13 -18 10 -8 -3 -15 9 -19 35 -4 22
-10 38 -15 35 -10 -7 -41 37 -41 58 0 7 8 13 18 12 9 0 17 6 17 14 0 8 -9 15
-19 15 -11 0 -21 6 -23 13 -3 6 2 12 10 12 7 0 14 8 15 18 7 78 -2 106 -26 76
-10 -13 -16 -15 -19 -6 -7 17 -70 15 -77 -3 -3 -8 -12 -15 -21 -15 -20 0 -20
53 0 70 14 12 13 15 -5 35 -25 27 -25 41 -1 56 16 11 17 15 5 38 -18 34 -17
69 1 105 9 16 13 31 10 34 -2 3 7 18 20 34 14 16 25 40 25 54 0 16 6 24 18 24
12 0 14 2 4 8 -7 5 -10 15 -7 24 3 8 1 26 -4 41 -7 17 -7 28 -1 32 20 12 9 25
-20 25 -16 0 -30 5 -30 10 0 6 8 10 17 10 9 0 14 3 10 6 -3 4 4 15 16 24 22
18 22 19 2 25 -58 19 -67 25 -59 43 4 9 8 31 9 47 2 39 13 81 32 127 10 23 12
44 8 55 -5 10 -10 53 -11 96 l-3 77 44 0 c24 0 46 -4 49 -9 9 -14 71 -22 97
-12 22 8 25 5 34 -28 7 -22 17 -36 27 -36 9 0 20 -4 24 -8 4 -4 19 -8 33 -8
17 -1 20 -3 9 -6 -10 -2 -18 -11 -18 -19 0 -11 6 -13 20 -9 16 5 20 2 20 -14
0 -12 3 -21 6 -21 11 0 31 26 39 50 l7 23 14 -24 c17 -31 18 -66 2 -72 -8 -4
-7 -6 3 -6 19 -1 29 -21 29 -57 0 -14 7 -27 15 -30 8 -4 13 -9 11 -13 -7 -10
22 -43 32 -37 6 3 7 20 3 38 -9 46 1 99 21 112 23 14 38 -1 47 -46 9 -45 40
-49 64 -9 9 16 17 35 17 41 0 7 7 18 16 24 13 10 13 15 2 37 -7 14 -19 24 -26
21 -15 -5 -16 24 -1 34 7 4 9 22 4 49 -3 27 -2 46 5 50 6 3 8 10 6 14 -9 13
-14 121 -7 125 4 3 7 23 7 45 -1 34 2 40 19 38 14 -1 20 4 21 19 1 12 5 27 10
35 6 10 10 8 14 -11 6 -27 40 -41 40 -17 0 9 5 17 12 19 12 4 -21 19 -82 36
l-35 10 30 7 c38 8 150 111 160 145 4 14 14 35 21 48 8 12 13 26 10 31 -3 4 6
19 20 32 20 19 24 30 20 53 -7 36 10 62 30 45 9 -7 11 -16 5 -23z m1010 -723
c3 -31 9 -176 9 -210 -1 -24 4 -43 10 -43 5 0 10 -8 10 -17 1 -16 2 -16 18 2
25 28 57 45 86 45 14 0 28 5 31 10 13 20 27 10 21 -15 -8 -30 16 -45 45 -27
15 10 18 8 21 -10 2 -16 13 -25 41 -31 20 -5 37 -13 37 -18 0 -5 8 -9 18 -10
10 0 4 -6 -15 -15 -35 -15 -41 -31 -20 -53 10 -11 9 -13 -5 -8 -22 8 -39 -14
-31 -42 3 -12 -1 -36 -10 -54 -8 -18 -26 -54 -39 -82 -12 -27 -26 -52 -29 -55
-3 -3 -11 -21 -18 -40 -7 -19 -38 -87 -68 -150 -30 -63 -59 -124 -63 -135 -30
-73 -36 -85 -41 -85 -3 0 -12 -18 -19 -40 -7 -21 -17 -37 -21 -35 -4 3 -11 0
-14 -6 -4 -5 -13 -8 -20 -5 -7 2 -16 -1 -19 -9 -3 -8 3 -17 15 -20 10 -4 19
-10 19 -15 0 -16 -21 -22 -35 -10 -19 16 -29 -4 -15 -30 19 -36 9 -64 -25 -70
-17 -3 -31 -12 -31 -20 -1 -8 -2 -21 -3 -27 -2 -19 -19 -16 -24 5 -4 13 -5 11
-6 -5 -1 -25 -35 -33 -45 -10 -5 9 -7 9 -12 0 -3 -7 -16 -13 -28 -13 -30 0
-80 -52 -65 -67 8 -8 8 -17 0 -32 -10 -18 -9 -21 7 -21 10 0 26 -6 36 -13 16
-12 16 -14 -3 -31 -12 -11 -29 -16 -41 -13 -26 7 -60 -20 -60 -45 0 -10 -4
-26 -9 -36 -5 -9 -24 -47 -41 -85 -18 -37 -36 -67 -40 -67 -24 0 -37 -31 -32
-75 5 -45 4 -47 -19 -43 -21 3 -24 8 -23 42 1 21 7 42 14 46 8 5 15 34 17 73
1 35 10 78 18 93 8 16 15 37 15 46 0 9 6 23 13 30 11 11 34 98 41 150 1 10 5
21 9 24 4 4 7 20 7 35 0 15 5 29 10 31 6 2 11 14 12 28 1 14 17 88 36 165 18
77 40 172 47 210 19 97 105 356 199 596 25 64 46 125 46 137 0 11 5 24 10 27
6 3 10 15 10 25 0 11 9 35 20 55 11 20 20 44 20 55 0 18 19 30 21 13z m-2146
-25 c29 -13 32 -23 9 -32 -9 -4 -12 -11 -7 -18 4 -7 9 -24 11 -38 1 -14 5 -32
9 -40 3 -8 7 -41 8 -73 2 -31 6 -68 9 -82 3 -13 2 -26 -3 -29 -11 -7 -11 -56
0 -56 5 0 9 -9 9 -20 0 -12 9 -30 20 -42 16 -17 17 -24 7 -36 -10 -13 -8 -14
15 -10 16 3 25 1 21 -5 -3 -5 -7 -30 -9 -56 -6 -89 -16 -131 -29 -131 -10 0
-12 10 -8 36 5 29 2 40 -12 50 -14 11 -17 23 -13 64 4 38 2 50 -8 50 -11 0
-14 22 -14 93 0 50 -5 110 -11 132 -6 22 -13 64 -16 94 -3 29 -13 68 -24 85
-10 17 -19 39 -19 48 0 14 5 19 27 27 1 1 14 -4 28 -11z m3120 -89 c16 -3 21
-15 26 -54 9 -70 19 -101 29 -85 6 9 9 9 15 0 4 -7 3 -15 -3 -19 -6 -3 -12
-26 -15 -50 -2 -25 -11 -49 -20 -56 -10 -7 -17 -21 -17 -32 0 -10 -7 -28 -15
-39 -8 -10 -15 -26 -15 -34 0 -9 -9 -23 -20 -33 -11 -9 -20 -24 -20 -32 0 -9
-7 -29 -16 -46 -14 -28 -18 -30 -67 -27 -45 3 -52 6 -55 26 -2 12 1 22 6 22 6
0 10 10 10 23 1 49 17 129 34 164 6 12 8 33 4 47 -3 14 -3 58 0 97 6 58 11 73
26 77 19 5 24 27 8 37 -16 10 -2 24 19 18 10 -2 25 2 32 11 12 12 16 12 24 2
6 -8 19 -15 30 -17z m-339 -31 l-21 -17 28 -1 c16 0 27 -5 27 -14 0 -8 6 -17
13 -20 6 -3 -2 -3 -20 0 -30 5 -32 3 -38 -29 -4 -18 -6 -40 -4 -48 3 -20 -12
-50 -22 -43 -5 3 -9 -2 -9 -10 0 -8 -5 -18 -11 -22 -9 -5 -10 3 -5 29 6 30 4
36 -13 42 -12 4 -18 12 -14 21 3 7 0 14 -6 14 -12 0 -15 38 -5 64 3 9 12 16
19 16 7 0 12 6 11 13 0 6 4 13 9 15 6 1 13 -24 16 -55 5 -55 6 -56 9 -15 1 23
4 47 5 52 1 6 3 19 4 29 1 16 4 18 25 8 l23 -11 -21 -18z m-2947 -63 c6 -36 9
-70 6 -75 -3 -5 -1 -17 4 -27 36 -69 50 -108 40 -119 -7 -8 -7 -14 1 -19 13
-8 8 -77 -6 -82 -7 -2 -14 15 -19 42 -7 49 -19 53 -20 8 0 -23 -4 -27 -30 -27
-31 -1 -48 -21 -18 -21 22 0 28 -21 8 -29 -9 -3 -18 1 -22 9 -3 10 -12 13 -24
10 -21 -7 -27 11 -6 18 6 2 8 8 4 13 -4 4 -21 0 -36 -9 -40 -24 -60 -21 -67 8
-3 14 -10 25 -14 25 -4 0 -8 15 -8 33 0 33 23 76 34 64 4 -4 13 1 21 11 12 16
14 16 24 0 5 -10 15 -18 22 -18 7 0 22 -16 35 -35 12 -19 27 -35 32 -35 15 0
12 17 -5 24 -8 3 -15 14 -15 24 0 10 -6 24 -12 31 -11 11 -10 13 5 8 17 -6 23
4 10 17 -4 4 -8 13 -8 19 -1 7 -9 39 -19 71 l-19 60 29 23 c16 13 34 28 39 33
18 16 21 11 34 -55z m2771 -97 c0 -9 3 -8 10 2 7 12 11 13 22 2 11 -11 10 -15
-4 -23 -11 -6 -18 -22 -18 -39 0 -17 -5 -30 -11 -30 -6 0 -8 -9 -4 -22 6 -17
4 -20 -10 -14 -12 4 -18 0 -22 -15 -3 -11 -11 -18 -18 -15 -15 6 -29 -21 -15
-29 5 -3 7 -13 4 -23 -5 -16 -5 -16 9 1 21 25 47 22 47 -7 0 -13 -4 -26 -9
-28 -5 -1 -12 -19 -16 -38 -7 -31 -6 -33 8 -22 9 8 15 19 13 25 -1 7 -1 9 1 5
3 -5 11 -8 19 -8 9 0 13 -4 10 -9 -4 -5 -1 -11 5 -13 14 -5 23 -74 10 -82 -5
-4 -13 4 -17 16 -6 21 -7 21 -21 -5 -15 -30 -38 -35 -47 -12 -8 21 -34 19 -32
-2 1 -15 -8 -18 -53 -18 -38 -1 -57 -6 -66 -18 -13 -19 -35 -23 -35 -7 0 10
20 50 30 60 8 8 70 135 70 144 0 4 9 27 20 51 20 43 40 66 40 46 0 -6 4 -11 8
-11 5 0 8 13 8 28 0 32 41 122 55 122 5 0 9 -6 9 -12z m-2929 -333 c12 4 21 1
24 -7 3 -8 15 -15 27 -15 28 -2 36 -12 40 -47 3 -26 -1 -30 -30 -38 -23 -6
-38 -5 -48 3 -11 9 -18 9 -26 1 -19 -19 -32 -14 -51 19 -44 78 -28 156 21 103
16 -17 30 -23 43 -19z m2705 -248 l3 -93 -60 -18 c-66 -19 -79 -16 -72 17 7
31 55 149 67 166 11 14 48 31 55 25 2 -2 5 -45 7 -97z m163 79 c26 4 41 2 46
-6 6 -10 2 -12 -14 -7 -14 3 -24 0 -28 -9 -3 -8 -12 -14 -21 -14 -20 0 -52
-29 -52 -47 0 -7 6 -13 13 -12 20 2 63 17 50 18 -23 2 -14 19 18 35 37 18 61
10 33 -11 -18 -13 -18 -15 -1 -27 27 -20 21 -46 -10 -48 -16 -1 -35 -2 -44 -3
-9 0 -23 -6 -31 -13 -8 -7 -28 -14 -44 -16 -16 -2 -38 -7 -49 -12 -17 -7 -18
-5 -8 7 10 12 10 18 1 27 -9 9 -8 16 5 29 11 13 13 23 5 36 -7 13 -6 27 2 48
13 30 24 36 35 19 12 -20 45 -11 46 13 1 16 2 18 6 4 4 -14 12 -16 42 -11z
m945 -1 c0 -11 -4 -30 -8 -42 -7 -21 -5 -22 23 -17 21 4 31 3 31 -5 0 -7 -6
-11 -12 -9 -7 2 -14 0 -15 -5 -6 -17 -2 -27 12 -27 8 0 15 -4 15 -9 0 -17 -56
-31 -130 -34 l-75 -2 17 50 c10 27 17 58 18 68 0 9 6 17 14 17 8 0 21 6 28 14
30 30 83 30 82 1z m-1059 -216 c4 -6 -2 -19 -14 -30 -24 -22 -27 -39 -8 -39
16 0 39 -58 26 -66 -6 -3 -17 0 -25 7 -8 6 -18 9 -22 5 -4 -4 1 -13 11 -20 21
-16 22 -26 2 -26 -24 0 -17 -36 9 -48 19 -8 23 -16 19 -33 l-6 -23 -10 22
c-13 29 -37 28 -37 0 0 -13 -5 -30 -10 -38 -16 -24 -30 7 -24 52 2 22 0 38 -6
38 -5 0 -10 -18 -10 -41 0 -32 -4 -42 -20 -46 -11 -3 -20 -9 -20 -14 0 -5 -4
-9 -9 -9 -14 0 -20 37 -8 49 8 8 6 11 -7 11 -15 0 -17 -7 -14 -42 3 -31 -1
-48 -13 -61 -21 -23 -29 -63 -15 -77 7 -7 5 -15 -7 -27 -16 -16 -17 -16 -17 5
0 12 -3 22 -8 22 -14 0 -34 -61 -29 -93 4 -30 -10 -57 -31 -57 -5 0 -13 -8
-16 -17 -17 -44 -32 -63 -52 -63 -17 0 -20 -5 -16 -30 4 -27 2 -30 -19 -28
-16 2 -23 -2 -21 -11 2 -9 -4 -12 -22 -9 -23 5 -24 3 -25 -54 0 -32 -5 -66 -9
-76 -5 -9 -8 -24 -5 -32 2 -8 -2 -5 -8 8 -17 32 -36 28 -31 -7 3 -22 -1 -32
-17 -40 -12 -7 -21 -18 -21 -26 0 -8 -9 -15 -20 -15 -31 0 -27 47 5 62 14 6
25 18 25 27 0 30 -12 61 -21 55 -18 -11 -8 37 19 93 15 32 29 60 32 63 3 3 10
16 17 30 6 14 41 86 77 160 36 75 66 140 66 145 1 23 116 240 126 238 6 -1 14
16 18 37 5 34 10 40 30 40 14 0 26 5 28 11 2 6 23 12 46 13 24 2 46 6 49 10
10 10 61 7 68 -5z m1013 -121 c24 -9 50 -14 58 -11 8 3 14 0 14 -6 0 -6 -8
-11 -18 -11 -10 0 -27 -7 -38 -15 -16 -12 -17 -16 -4 -24 8 -6 17 -6 20 -1 6
10 60 1 60 -11 0 -5 -9 -9 -21 -9 -11 0 -18 -4 -15 -9 3 -5 15 -7 26 -4 11 3
28 2 37 -2 17 -6 17 -7 1 -16 -11 -6 -18 -22 -18 -39 0 -20 -5 -30 -15 -30 -8
0 -15 -4 -15 -10 0 -5 3 -10 8 -10 14 0 33 -53 22 -64 -18 -18 -12 -63 10 -69
17 -4 19 -11 14 -31 -5 -22 -3 -26 16 -26 13 0 20 -5 17 -12 -2 -7 -10 -12
-16 -10 -6 1 -14 -4 -17 -12 -3 -8 -12 -12 -19 -10 -7 3 -16 0 -20 -6 -5 -8
-12 -6 -25 5 -10 9 -23 14 -29 11 -5 -3 -21 -2 -35 4 -16 6 -27 6 -31 -1 -4
-5 -23 -16 -42 -24 -29 -12 -38 -13 -45 -3 -6 10 -10 10 -17 0 -7 -11 -9 -11
-14 2 -4 9 -4 22 -1 30 3 8 -3 16 -15 19 -22 5 -29 44 -12 62 5 6 11 35 13 65
3 54 2 55 -25 58 -15 2 -25 7 -22 12 3 5 0 18 -7 29 -10 17 -10 26 6 52 12 20
15 34 8 41 -5 5 -7 18 -5 29 5 17 22 23 61 22 6 -1 12 7 12 16 0 17 80 53 90
41 3 -3 24 -13 48 -22z m-3846 -199 c3 -16 1 -32 -4 -35 -5 -3 -6 -9 -3 -14 3
-4 -2 -14 -11 -21 -11 -9 -14 -26 -12 -58 2 -36 0 -46 -12 -46 -10 0 -16 12
-18 33 -2 17 -7 32 -12 32 -5 0 -12 -15 -16 -32 l-7 -33 -9 35 c-6 19 -16 39
-24 43 -12 7 -11 12 6 34 11 14 20 41 20 59 0 18 5 36 10 39 6 3 10 0 10 -7 0
-10 2 -10 9 1 5 7 13 11 19 7 6 -3 14 -2 17 4 11 17 32 -6 37 -41z m3808 -314
c0 -7 6 -16 13 -18 9 -4 9 -8 -2 -15 -7 -5 -11 -16 -9 -23 3 -8 1 -25 -4 -37
-10 -30 -1 -47 17 -32 10 8 16 7 24 -7 9 -16 10 -16 11 5 0 25 15 30 24 7 8
-23 25 -18 36 10 12 31 22 33 18 3 -2 -11 3 -23 10 -25 6 -3 12 0 12 7 0 6 5
8 10 5 6 -4 8 -11 5 -16 -4 -5 0 -12 9 -15 9 -3 12 -12 9 -21 -5 -13 -2 -15
15 -11 24 7 57 -22 35 -29 -21 -7 -15 -29 12 -43 33 -18 27 -34 -13 -38 -27
-3 -32 0 -33 20 -1 22 -2 22 -12 -4 -11 -28 -31 -36 -42 -18 -4 6 -11 8 -16 5
-5 -4 -15 -3 -21 2 -21 13 -58 14 -58 2 0 -8 -4 -8 -15 1 -8 6 -19 9 -24 6 -5
-4 -30 -9 -55 -11 -44 -5 -46 -4 -48 23 -5 98 24 170 57 142 13 -11 15 -6 14
36 0 27 -4 58 -8 69 -5 11 -4 25 1 32 12 15 28 8 28 -12z m-2233 -126 c-1 -51
-5 -63 -29 -86 -23 -22 -28 -24 -34 -10 -3 9 -12 13 -19 11 -11 -4 -13 9 -11
63 4 87 2 80 34 97 43 23 61 0 59 -75z"/>
<path d="M2090 2130 c0 -5 -11 -12 -25 -16 -14 -3 -25 -13 -25 -20 0 -23 29
-28 50 -9 11 10 20 14 20 8 0 -18 -37 -44 -54 -37 -10 4 -16 1 -16 -9 0 -8 -7
-27 -15 -43 -8 -16 -12 -39 -9 -51 4 -15 2 -23 -6 -23 -10 0 -10 -3 -1 -14 7
-8 12 -30 11 -48 0 -18 0 -44 0 -56 0 -16 -7 -26 -20 -29 -11 -3 -20 -11 -20
-18 0 -7 -7 -16 -16 -19 -14 -5 -14 -9 -3 -23 11 -13 11 -17 2 -20 -17 -6 -17
-24 -1 -21 14 3 17 -60 4 -81 -9 -14 12 -43 25 -36 4 3 6 12 3 20 -4 9 0 12
14 8 16 -4 19 -1 15 21 -3 15 -9 29 -14 32 -17 10 -9 34 11 34 17 0 19 5 14
25 -7 28 18 75 40 75 8 0 17 6 20 13 5 10 7 10 12 0 7 -15 24 -17 24 -4 0 5
-14 18 -31 29 -29 18 -30 20 -12 26 12 4 23 19 27 36 3 18 12 30 21 30 8 0 15
5 15 10 0 6 -7 10 -15 10 -8 0 -15 -4 -15 -10 0 -5 -4 -10 -9 -10 -5 0 -8 11
-8 25 0 14 3 25 7 25 9 0 5 69 -4 78 -4 3 1 16 10 30 13 19 14 30 5 48 -10 24
-31 33 -31 14z"/>
</g>
</svg>
