<svg width="59" height="61" viewBox="0 0 59 61" fill="none" xmlns="http://www.w3.org/2000/svg">
<path d="M6.90715 7.21991C6.7979 3.97214 9.24502 0.977417 12.5532 0.977417H46.4505C49.7587 0.977417 52.2058 3.97214 52.0965 7.21991C51.9914 10.3395 52.1279 14.3807 53.1115 17.6757C54.0984 20.9811 55.7624 23.0699 58.4879 23.3387V26.3825C55.7624 26.6508 54.0984 28.74 53.1115 32.0455C52.1279 35.3404 51.9914 39.3817 52.0965 42.5013C52.2058 45.749 49.7587 48.7433 46.4505 48.7433H12.5532C9.24502 48.7433 6.7979 45.7486 6.90715 42.5013C7.01224 39.3817 6.8758 35.3404 5.8917 32.0455C4.90529 28.7405 3.2367 26.6513 0.511177 26.3825V23.3387C3.2367 23.0704 4.90529 20.9811 5.8917 17.6757C6.8758 14.3807 7.01178 10.3395 6.90715 7.21991V7.21991Z" fill="url(#paint0_linear_2_54)"/>
<g filter="url(#filter0_d_2_54)">
<path d="M30.9334 37.7315C36.289 37.7315 39.5163 35.0203 39.5163 30.5485C39.5163 27.1683 37.2136 24.7211 33.7944 24.3337V24.1929C36.3065 23.7704 38.2778 21.3584 38.2778 18.6648C38.2778 14.8269 35.347 12.3268 30.8811 12.3268H20.8327V37.7315H30.9334ZM24.7404 15.5486H29.9391C32.7652 15.5486 34.3701 16.8514 34.3701 19.2105C34.3701 21.7282 32.5035 23.1365 29.1192 23.1365H24.7404V15.5486ZM24.7404 34.5096V26.1471H29.9041C33.6025 26.1471 35.5214 27.5554 35.5214 30.302C35.5214 33.0484 33.6549 34.5096 30.1309 34.5096H24.7404Z" fill="url(#paint1_linear_2_54)"/>
<path d="M30.9334 37.7315C36.289 37.7315 39.5163 35.0203 39.5163 30.5485C39.5163 27.1683 37.2136 24.7211 33.7944 24.3337V24.1929C36.3065 23.7704 38.2778 21.3584 38.2778 18.6648C38.2778 14.8269 35.347 12.3268 30.8811 12.3268H20.8327V37.7315H30.9334ZM24.7404 15.5486H29.9391C32.7652 15.5486 34.3701 16.8514 34.3701 19.2105C34.3701 21.7282 32.5035 23.1365 29.1192 23.1365H24.7404V15.5486ZM24.7404 34.5096V26.1471H29.9041C33.6025 26.1471 35.5214 27.5554 35.5214 30.302C35.5214 33.0484 33.6549 34.5096 30.1309 34.5096H24.7404Z" stroke="white" stroke-width="0.24566"/>
</g>
<defs>
<filter id="filter0_d_2_54" x="16.7793" y="9.25603" width="26.7904" height="33.5115" filterUnits="userSpaceOnUse" color-interpolation-filters="sRGB">
<feFlood flood-opacity="0" result="BackgroundImageFix"/>
<feColorMatrix in="SourceAlpha" type="matrix" values="0 0 0 0 0 0 0 0 0 0 0 0 0 0 0 0 0 0 127 0" result="hardAlpha"/>
<feOffset dy="0.98264"/>
<feGaussianBlur stdDeviation="1.96528"/>
<feColorMatrix type="matrix" values="0 0 0 0 0 0 0 0 0 0 0 0 0 0 0 0 0 0 0.15 0"/>
<feBlend mode="normal" in2="BackgroundImageFix" result="effect1_dropShadow_2_54"/>
<feBlend mode="normal" in="SourceGraphic" in2="effect1_dropShadow_2_54" result="shape"/>
</filter>
<linearGradient id="paint0_linear_2_54" x1="9.12636" y1="2.24156" x2="61.0827" y2="42.1329" gradientUnits="userSpaceOnUse">
<stop stop-color="#9013FE"/>
<stop offset="1" stop-color="#6610F2"/>
</linearGradient>
<linearGradient id="paint1_linear_2_54" x1="22.6005" y1="13.9986" x2="34.4922" y2="33.4516" gradientUnits="userSpaceOnUse">
<stop stop-color="white"/>
<stop offset="1" stop-color="#F1E5FC"/>
</linearGradient>
</defs>
</svg>
