<svg width="48" height="54" viewBox="0 0 48 54" fill="none" xmlns="http://www.w3.org/2000/svg">
<path d="M4.2904 48.14L0 0H47.16L42.8639 48.1323L23.5513 53.4867L4.2904 48.14Z" fill="#1572B6"/>
<path d="M23.58 49.395L39.1867 45.0683L42.8581 3.93701H23.58V49.395Z" fill="#33A9DC"/>
<path d="M23.58 21.3775H31.3929L31.9316 15.3316H23.58V9.42703H23.601H38.3844L38.243 11.0106L36.7931 27.282H23.58V21.3775Z" fill="white"/>
<path d="M23.6163 36.711L23.5896 36.7186L17.0145 34.9421L16.5943 30.2334H13.3984H10.6668L11.4939 39.5038L23.5876 42.862L23.6163 42.8543V36.711Z" fill="#EBEBEB"/>
<path d="M30.8905 27.0318L30.1799 34.9383L23.5953 36.7148V42.8581L35.6986 39.5038L35.7883 38.5066L36.8141 27.0318H30.8905Z" fill="white"/>
<path d="M23.601 9.42703V13.0947V15.3163V15.3316H9.35827H9.33917L9.22073 14.004L8.95139 11.0106L8.81003 9.42703H23.601Z" fill="#EBEBEB"/>
<path d="M23.58 21.3775V25.0452V27.2668V27.2821H17.1062H17.0871L16.9687 25.9544L16.7012 22.9611L16.5599 21.3775H23.58Z" fill="#EBEBEB"/>
</svg>
