<svg width="48" height="54" viewBox="0 0 48 54" fill="none" xmlns="http://www.w3.org/2000/svg">
<path d="M4.29196 48.1361L0 0H47.16L42.8623 48.1284L23.5513 53.4824L4.29196 48.1361Z" fill="#E44F26"/>
<path d="M23.58 49.391L39.1854 45.0647L42.8566 3.93671H23.58V49.391Z" fill="#F1662A"/>
<path d="M23.58 21.7883H15.7678L15.2291 15.7429H23.58V9.83884H23.559H8.77686L8.9182 11.4242L10.368 27.6924H23.58V21.7883Z" fill="#EBEBEB"/>
<path d="M23.58 37.1206L23.5533 37.1282L16.9787 35.3538L16.5585 30.6454H13.363H10.6315L11.4586 39.9131L23.5533 43.2711L23.58 43.2634V37.1206Z" fill="#EBEBEB"/>
<path d="M23.559 21.7884V27.6924H30.8288L30.145 35.35L23.559 37.1263V43.2692L35.6632 39.9132L35.7511 38.9161L37.1378 23.3737L37.283 21.7884H35.6919H23.559Z" fill="white"/>
<path d="M23.559 9.83884V13.5062V15.7295V15.7429H37.8006H37.8197L37.9381 14.4173L38.2074 11.4242L38.3488 9.83884H23.559Z" fill="white"/>
</svg>
