<svg width="48" height="34" viewBox="0 0 48 34" fill="none" xmlns="http://www.w3.org/2000/svg">
<path d="M29.225 23.4567C29.8345 24.6924 30.7804 25.731 31.9537 26.4533C33.1271 27.1755 34.4805 27.5521 35.8583 27.5397C38.6444 27.5397 40.4245 26.1466 40.4245 24.223C40.4245 21.9183 38.5953 21.1009 35.5301 19.7589L33.8482 19.0378C28.9971 16.9708 25.7728 14.3812 25.7728 8.90712C25.7728 3.86339 29.616 0.0260648 35.6205 0.0260648C37.5693 -0.115343 39.5166 0.320865 41.2189 1.28015C42.9211 2.23944 44.3028 3.67924 45.1912 5.41954L39.9549 8.78137C39.6121 7.919 39.0149 7.18138 38.2428 6.66652C37.4707 6.15167 36.5602 5.88395 35.6323 5.89896C35.2278 5.85826 34.8194 5.9023 34.4329 6.02826C34.0464 6.15422 33.6904 6.35934 33.3876 6.63053C33.0847 6.90173 32.8418 7.23306 32.6741 7.60338C32.5065 7.9737 32.4179 8.3749 32.4139 8.78137C32.4139 10.7993 33.6635 11.6147 36.5401 12.8643L38.222 13.5834C43.9357 16.0336 47.16 18.5309 47.16 24.1464C47.16 30.2001 42.4051 33.5167 36.0174 33.5167C33.5293 33.675 31.0485 33.1099 28.8744 31.8896C26.7003 30.6694 24.9257 28.8461 23.7647 26.6398L29.225 23.4567ZM5.47403 24.0462C6.53112 25.9206 7.49192 27.5043 9.79667 27.5043C12.0051 27.5043 13.4002 26.6398 13.4002 23.2799V0.419032H20.1239V23.3742C20.1239 30.3356 16.0409 33.5049 10.0835 33.5049C7.97918 33.6188 5.88963 33.093 4.0898 31.9967C2.28997 30.9004 0.864174 29.2849 0 27.3628L5.47403 24.0462Z" fill="#F5DE19"/>
</svg>
