<svg width="49" height="48" viewBox="0 0 49 48" fill="none" xmlns="http://www.w3.org/2000/svg">
<path d="M47.7946 20.5092C47.1359 16.0693 45.2505 11.9017 42.3507 8.47577C39.4509 5.04985 35.6519 2.50183 31.3819 1.11878C29.7558 0.602389 28.0815 0.252028 26.3848 0.0730557C25.9339 0.0267698 22.8328 -0.0246592 22.4419 0.0130553C22.339 0.0130553 22.0099 0.0541985 21.715 0.0781986C18.2968 0.409053 14.9891 1.46787 12.0141 3.18348C9.03915 4.89908 6.46596 7.2317 4.46753 10.0245C2.23203 13.1274 0.778844 16.7242 0.231509 20.5092C0.0471194 21.6629 -0.0269297 22.8316 0.0103648 23.9995C-0.0288947 25.1688 0.0434328 26.3393 0.226366 27.4949C0.883859 31.9355 2.76883 36.1042 5.66876 39.5309C8.56869 42.9575 12.3682 45.5059 16.639 46.8887C18.2878 47.4111 19.9859 47.7633 21.7065 47.9396C23.238 48.0201 24.7727 48.0201 26.3042 47.9396C29.3198 47.6447 32.2533 46.787 34.9528 45.411C35.3642 45.2001 35.4448 45.1436 35.3882 45.0973C35.3317 45.051 33.5917 42.7093 31.4797 39.8567L27.6414 34.6726L22.8413 27.5549C20.1945 23.6429 18.0173 20.444 17.9984 20.444C17.9796 20.444 17.9607 23.6 17.9522 27.4623C18.0746 29.862 18.0402 32.2671 17.8493 34.6624C17.7669 34.8493 17.6204 35.0007 17.4362 35.0892C17.2853 35.1646 17.1533 35.1784 16.4453 35.1784H15.6344L15.4184 35.0429C15.2846 34.9588 15.1757 34.8404 15.103 34.7001L15.0053 34.4892L15.0139 25.0829L15.0293 15.6714L15.1733 15.488C15.2704 15.3737 15.3864 15.2769 15.5162 15.2017C15.7082 15.1091 15.7836 15.0988 16.5944 15.0988C17.5527 15.0988 17.7122 15.1366 17.9659 15.4091C18.0362 15.4846 20.6402 19.4051 23.755 24.1297C26.8699 28.8543 31.1265 35.3052 33.2248 38.4715L37.022 44.2281L37.214 44.1013C39.0439 42.8845 40.7027 41.4281 42.146 39.771C45.1699 36.3104 47.1312 32.0509 47.7946 27.5035C47.9781 26.345 48.0504 25.1717 48.0106 23.9995C48.0496 22.8318 47.9773 21.6631 47.7946 20.5092ZM32.7757 23.6892L32.7619 32.1252L31.2739 29.8452L29.7825 27.5652V21.428C29.7825 17.4646 29.8014 15.236 29.8288 15.128C29.8622 15.0031 29.9207 14.8863 30.0005 14.7847C30.0804 14.683 30.18 14.5986 30.2934 14.5366C30.4854 14.4371 30.5556 14.4286 31.2928 14.4286C31.9785 14.4286 32.1088 14.4371 32.2631 14.5228C32.3753 14.5787 32.4751 14.6564 32.5567 14.7515C32.6382 14.8467 32.6999 14.9572 32.7379 15.0766C32.7757 15.2034 32.7842 17.8109 32.7757 23.6892Z" fill="white"/>
</svg>
