<svg width="48" height="48" viewBox="0 0 48 48" fill="none" xmlns="http://www.w3.org/2000/svg">
<path fill-rule="evenodd" clip-rule="evenodd" d="M23.58 0C28.2437 0 32.8026 1.38294 36.6803 3.97395C40.558 6.56495 43.5804 10.2476 45.3651 14.5563C47.1498 18.865 47.6167 23.6062 46.7069 28.1802C45.7971 32.7543 43.5513 36.9558 40.2536 40.2536C36.9558 43.5513 32.7543 45.7971 28.1802 46.7069C23.6062 47.6167 18.865 47.1498 14.5563 45.3651C10.2476 43.5804 6.56495 40.558 3.97395 36.6803C1.38294 32.8026 0 28.2437 0 23.58C0 17.3262 2.48431 11.3285 6.90642 6.90642C11.3285 2.48431 17.3262 0 23.58 0Z" fill="#83CD29"/>
<path d="M23.58 47.16C22.9438 47.1602 22.3187 46.9929 21.7677 46.6749L16.0007 43.2609C15.14 42.7792 15.5594 42.6091 15.8441 42.5097C16.7594 42.2269 17.6359 41.8308 18.453 41.3307C18.5214 41.2991 18.5968 41.2854 18.6719 41.291C18.7471 41.2966 18.8196 41.3213 18.8825 41.3627L23.3139 43.9952C23.3964 44.0389 23.4883 44.0617 23.5817 44.0617C23.675 44.0617 23.767 44.0389 23.8495 43.9952L41.1302 34.0209C41.2111 33.9725 41.278 33.9038 41.3244 33.8217C41.3707 33.7397 41.3949 33.6469 41.3947 33.5527V13.6006C41.3947 13.5049 41.3701 13.4107 41.3232 13.3272C41.2763 13.2437 41.2087 13.1737 41.1269 13.124L23.8461 3.15805C23.7646 3.11216 23.6727 3.08805 23.5792 3.08805C23.4856 3.08805 23.3937 3.11216 23.3122 3.15805L6.04153 13.1273C5.95915 13.1761 5.89074 13.2452 5.84294 13.3281C5.79514 13.4111 5.76956 13.5049 5.76868 13.6006V33.5442C5.76891 33.6383 5.79415 33.7306 5.8418 33.8117C5.88945 33.8928 5.9578 33.9598 6.03985 34.0057L10.7794 36.741C13.348 38.0244 14.9211 36.512 14.9211 34.9927V15.3017C14.9211 15.2354 14.9342 15.1697 14.9595 15.1084C14.9849 15.0471 15.0222 14.9914 15.0691 14.9445C15.116 14.8975 15.1717 14.8603 15.233 14.8349C15.2943 14.8095 15.36 14.7965 15.4264 14.7965H17.6159C17.7499 14.7965 17.8785 14.8497 17.9732 14.9445C18.068 15.0392 18.1212 15.1677 18.1212 15.3017V34.9944C18.1212 38.4219 16.255 40.3841 13.0044 40.3841C11.602 40.4086 10.2216 40.0335 9.0244 39.3028L4.48188 36.6972C3.93043 36.3761 3.47285 35.9159 3.15485 35.3627C2.83684 34.8094 2.66952 34.1824 2.66959 33.5442V13.6006C2.66795 12.9615 2.83456 12.3332 3.15268 11.7788C3.4708 11.2245 3.92923 10.7636 4.48188 10.4426L21.7643 0.464879C22.321 0.160306 22.9454 0.000671387 23.58 0.000671387C24.2146 0.000671387 24.8389 0.160306 25.3957 0.464879L42.6764 10.4426C43.2278 10.7631 43.6855 11.2226 44.0038 11.7753C44.3221 12.3279 44.4899 12.9544 44.4904 13.5922V33.5442C44.4895 34.1824 44.3215 34.8092 44.0033 35.3623C43.6851 35.9154 43.2276 36.3757 42.6764 36.6972L25.3957 46.6749C24.8436 46.9934 24.2173 47.1608 23.58 47.16ZM29.4548 33.2529C34.9304 33.2529 38.0699 31.097 38.0699 27.3309C38.0699 23.5985 35.5435 22.6031 30.2363 21.9025C24.8702 21.1917 24.3244 20.8262 24.3244 19.5697C24.3244 18.5322 24.7859 17.1477 28.7609 17.1477C32.3113 17.1477 33.62 17.9124 34.1506 20.3058C34.1761 20.4157 34.2378 20.5139 34.3257 20.5848C34.4137 20.6556 34.5228 20.6949 34.6356 20.6965H36.8858C36.9549 20.6956 37.023 20.6805 37.086 20.6522C37.1489 20.6239 37.2055 20.583 37.252 20.532C37.2986 20.4811 37.3342 20.4211 37.3567 20.3558C37.3791 20.2905 37.388 20.2213 37.3827 20.1525C37.0357 16.0294 34.2971 14.1076 28.7592 14.1076C23.8326 14.1076 20.8936 16.1877 20.8936 19.6742C20.8936 23.4571 23.8175 24.5013 28.5469 24.9695C34.2045 25.5237 34.6441 26.3507 34.6441 27.464C34.6441 29.3958 33.0945 30.2195 29.4531 30.2195C24.8803 30.2195 23.8731 29.0708 23.5362 26.797C23.5167 26.6792 23.4561 26.5721 23.3651 26.4947C23.2742 26.4173 23.1588 26.3746 23.0393 26.3742H20.8026C20.6686 26.3742 20.5401 26.4275 20.4453 26.5222C20.3506 26.617 20.2973 26.7455 20.2973 26.8795C20.3024 29.7815 21.8873 33.2529 29.4497 33.2529H29.4548Z" fill="white"/>
</svg>
