<svg width="48" height="58" viewBox="0 0 48 58" fill="none" xmlns="http://www.w3.org/2000/svg">
<path fill-rule="evenodd" clip-rule="evenodd" d="M42.4637 45.5444L16.8945 53.1674C16.7163 53.2214 16.5272 53.2283 16.3456 53.1874C16.164 53.1464 15.9961 53.0591 15.8583 52.9339C15.7205 52.8088 15.6176 52.65 15.5595 52.4731C15.5014 52.2963 15.4902 52.1074 15.5269 51.9249L24.663 7.82099C24.7017 7.64083 24.7958 7.4773 24.9321 7.35339C25.0685 7.22948 25.2403 7.1514 25.4233 7.13014C25.6063 7.10887 25.7914 7.14548 25.9526 7.23483C26.1137 7.32417 26.2428 7.46176 26.3217 7.62826L43.2346 43.8385C43.3104 43.9995 43.3504 44.1751 43.3518 44.353C43.3532 44.531 43.316 44.7071 43.2427 44.8693C43.1694 45.0315 43.0618 45.1758 42.9273 45.2924C42.7928 45.4089 42.6346 45.4949 42.4637 45.5444ZM46.8493 43.7442L27.271 1.81772C27.0303 1.30059 26.6533 0.858811 26.1805 0.539839C25.7076 0.220868 25.1568 0.0367652 24.5872 0.00731237C24.0175 -0.0318685 23.4481 0.0869469 22.9416 0.35067C22.4351 0.614394 22.0113 1.01279 21.7168 1.50198L0.485947 36.1909C0.16208 36.716 -0.0063488 37.3221 0.000183017 37.939C0.00671483 38.5559 0.18794 39.1583 0.522853 39.6764L10.9055 55.8922C11.2968 56.4982 11.8738 56.9612 12.5502 57.2118C13.2266 57.4624 13.966 57.4871 14.6576 57.2823L44.7969 48.2959C45.2521 48.1633 45.6732 47.9336 46.0311 47.6226C46.389 47.3117 46.6752 46.9268 46.8701 46.4946C47.065 46.0624 47.1638 45.593 47.1599 45.1189C47.1559 44.6448 47.0493 44.1772 46.8472 43.7483L46.8493 43.7442Z" fill="#0C344B"/>
</svg>
