<svg width="48" height="42" viewBox="0 0 48 42" fill="none" xmlns="http://www.w3.org/2000/svg">
<path d="M23.58 25.1506C25.9055 25.1506 27.7907 23.2654 27.7907 20.9398C27.7907 18.6143 25.9055 16.7291 23.58 16.7291C21.2545 16.7291 19.3693 18.6143 19.3693 20.9398C19.3693 23.2654 21.2545 25.1506 23.58 25.1506Z" fill="#00D8FF"/>
<path d="M23.58 30.5942C18.5189 30.7166 13.4706 30.0344 8.62354 28.573C6.38449 27.8632 4.29617 26.7451 2.46411 25.2752C1.76501 24.773 1.18283 24.1256 0.757494 23.3772C0.332162 22.6289 0.0737542 21.7974 0 20.9398C0 18.1557 3.05866 15.4272 8.18226 13.6418C13.1589 12.0599 18.3586 11.2932 23.58 11.3714C28.7317 11.2994 33.8618 12.0523 38.7756 13.6014C40.932 14.2889 42.9495 15.3529 44.7346 16.7443C45.4218 17.223 45.9952 17.847 46.4144 18.5721C46.8335 19.2971 47.0881 20.1055 47.16 20.9398C47.16 23.8334 43.7409 26.7658 38.2333 28.5882C33.4801 30.0019 28.5383 30.6784 23.58 30.5942ZM23.58 13.3858C18.5846 13.319 13.6104 14.0479 8.84418 15.5451C4.12818 17.1906 2.01441 19.4408 2.01441 20.9348C2.01441 22.4978 4.28651 24.9552 9.27536 26.6614C13.9123 28.0523 18.7404 28.6998 23.58 28.5798C28.3236 28.6646 33.0523 28.0227 37.6017 26.6765C42.7809 24.9602 45.1389 22.4995 45.1389 20.9398C45.0539 20.4046 44.8588 19.8928 44.566 19.4368C44.2732 18.9808 43.889 18.5905 43.4377 18.2905C41.8406 17.0561 40.0383 16.1131 38.1137 15.5046C33.4129 14.0288 28.5065 13.3135 23.58 13.3858Z" fill="#00D8FF"/>
<path d="M14.0133 41.9412C13.2275 41.9592 12.4511 41.7686 11.763 41.3887C9.35115 39.9975 8.51575 35.9856 9.528 30.6548C10.6441 25.5533 12.5779 20.6658 15.2546 16.1817C17.7654 11.6832 20.9798 7.6153 24.7758 4.13234C26.4486 2.60757 28.3783 1.39124 30.4755 0.539762C31.234 0.184275 32.0614 0 32.8992 0C33.7369 0 34.5643 0.184275 35.3228 0.539762C37.8307 1.98488 38.6611 6.41118 37.4905 12.0923C36.34 16.917 34.4564 21.5368 31.9054 25.7906C29.483 30.236 26.3698 34.2685 22.6823 37.7372C20.9488 39.3218 18.937 40.5718 16.7485 41.4241C15.8724 41.7493 14.9476 41.9241 14.0133 41.9412ZM16.9995 17.1822C14.4463 21.476 12.5928 26.1488 11.5087 31.0253C10.5773 35.935 11.4717 38.8876 12.7719 39.6388C14.1194 40.4186 17.3902 39.6792 21.3618 36.2096C24.882 32.8864 27.8534 29.0264 30.1656 24.7733C32.6093 20.7066 34.4162 16.2898 35.5233 11.6763C36.6248 6.32865 35.6732 3.0544 34.3224 2.27626C33.8161 2.08228 33.2751 1.99544 32.7335 2.02124C32.192 2.04704 31.6617 2.18492 31.1761 2.42616C29.3094 3.19646 27.5932 4.29004 26.1064 5.65662C22.4796 8.99283 19.4092 12.8872 17.0113 17.1923L16.9995 17.1822Z" fill="#00D8FF"/>
<path d="M33.1417 41.9631C30.8595 41.9631 27.9608 40.582 24.9426 37.9865C21.08 34.4718 17.8113 30.3556 15.263 25.7973C12.6199 21.375 10.7014 16.5582 9.58022 11.5297C9.09398 9.3174 9.00388 7.03637 9.3141 4.79258C9.38582 3.96022 9.63928 3.15373 10.0566 2.42997C10.4739 1.70622 11.0449 1.08283 11.7294 0.603764C14.2339 -0.846406 18.4834 0.644186 22.8204 4.49446C26.4258 7.9004 29.4874 11.8391 31.8987 16.1733C34.5401 20.4924 36.4788 25.2037 37.6421 30.131C38.1493 32.4245 38.2275 34.792 37.8729 37.114C37.7885 37.9703 37.5199 38.7983 37.0856 39.541C36.6512 40.2838 36.0614 40.9239 35.3565 41.4174C34.6797 41.7925 33.9153 41.9808 33.1417 41.9631ZM17.0062 24.7834C19.4509 29.1397 22.5733 33.0791 26.2563 36.4538C30.0443 39.7129 33.0491 40.4135 34.3409 39.6539C35.6883 38.8707 36.6821 35.674 35.658 30.5015C34.5361 25.7972 32.6766 21.3001 30.1487 17.1771C27.8477 13.0289 24.9253 9.25739 21.4831 5.99348C17.4004 2.36889 14.0891 1.55875 12.7399 2.34026C12.3195 2.68197 11.9744 3.10716 11.7265 3.58897C11.4787 4.07078 11.3334 4.59875 11.2999 5.13954C11.0321 7.14062 11.1193 9.17325 11.5576 11.144C12.636 15.9529 14.476 20.5585 17.0079 24.7867L17.0062 24.7834Z" fill="#00D8FF"/>
</svg>
