<svg width="48" height="29" viewBox="0 0 48 29" fill="none" xmlns="http://www.w3.org/2000/svg">
<path d="M11.79 9.432C13.362 3.144 17.292 0 23.58 0C33.012 0 34.191 7.074 38.907 8.253C42.051 9.039 44.802 7.86 47.16 4.716C45.588 11.004 41.658 14.148 35.37 14.148C25.938 14.148 24.759 7.074 20.043 5.895C16.899 5.109 14.148 6.288 11.79 9.432ZM0 23.58C1.572 17.292 5.502 14.148 11.79 14.148C21.222 14.148 22.401 21.222 27.117 22.401C30.261 23.187 33.012 22.008 35.37 18.864C33.798 25.152 29.868 28.296 23.58 28.296C14.148 28.296 12.969 21.222 8.253 20.043C5.109 19.257 2.358 20.436 0 23.58Z" fill="#44A8B3"/>
</svg>
